HIERARCHY
ROOT Hips
{
  OFFSET 3.13124 94.3669 -3.18751
  CHANNELS  6 Xposition Yposition Zposition Zrotation Xrotation Yrotation
  JOINT LeftUpLeg
  {
    OFFSET 8.64259 1.95398 -2.38835
    CHANNELS 3 Zrotation Xrotation Yrotation
    JOINT LeftLeg
    {
      OFFSET 43.7702 0 0
      CHANNELS 3 Zrotation Xrotation Yrotation
      JOINT LeftFoot
      {
        OFFSET 40.6238 0 0
        CHANNELS 3 Zrotation Xrotation Yrotation
        JOINT LeftToeBase
        {
          OFFSET 12.7242 0 0
          CHANNELS 3 Zrotation Xrotation Yrotation
          End Site
          {
            OFFSET 0 0 0
          }
        }
      }
    }
  }
  JOINT RightUpLeg
  {
    OFFSET -8.2249 1.95398 -2.59336
    CHANNELS 3 Zrotation Xrotation Yrotation
    JOINT RightLeg
    {
      OFFSET 43.5653 0 0
      CHANNELS 3 Zrotation Xrotation Yrotation
      JOINT RightFoot
      {
        OFFSET 40.6238 0 0
        CHANNELS 3 Zrotation Xrotation Yrotation
        JOINT RightToeBase
        {
          OFFSET 12.7242 0 0
          CHANNELS 3 Zrotation Xrotation Yrotation
          End Site
          {
            OFFSET 0 0 0
          }
        }
      }
    }
  }
  JOINT Spine
  {
    OFFSET 0.165834 0.87714 6.61349
    CHANNELS 3 Zrotation Xrotation Yrotation
    JOINT Spine1
    {
      OFFSET 7.38962 1.71661e-005 0
      CHANNELS 3 Zrotation Xrotation Yrotation
      JOINT Spine2
      {
        OFFSET 11.9445 1.14441e-005 0
        CHANNELS 3 Zrotation Xrotation Yrotation
        JOINT Spine3
        {
          OFFSET 14.7254 4.19617e-005 0
          CHANNELS 3 Zrotation Xrotation Yrotation
          JOINT Spine4
          {
            OFFSET 10.9679 0 0
            CHANNELS 3 Zrotation Xrotation Yrotation
            JOINT RightShoulder
            {
              OFFSET 2.46616 -1.6653 3.69651
              CHANNELS 3 Zrotation Xrotation Yrotation
              JOINT RightArm
              {
                OFFSET 13.0012 0 0
                CHANNELS 3 Zrotation Xrotation Yrotation
                JOINT RightForeArm
                {
                  OFFSET 28.7848 1.52588e-005 0
                  CHANNELS 3 Zrotation Xrotation Yrotation
                  JOINT RightHand
                  {
                    OFFSET 26.5688 1.52588e-005 0
                    CHANNELS 3 Zrotation Xrotation Yrotation
                    End Site
                    {
                      OFFSET 0 0 0
                    }
                  }
                }
              }
            }
            JOINT LeftShoulder
            {
              OFFSET 2.38034 -1.29275 -3.75231
              CHANNELS 3 Zrotation Xrotation Yrotation
              JOINT LeftArm
              {
                OFFSET 16.3182 6.10352e-005 0
                CHANNELS 3 Zrotation Xrotation Yrotation
                JOINT LeftForeArm
                {
                  OFFSET 27.0901 0 0
                  CHANNELS 3 Zrotation Xrotation Yrotation
                  JOINT LeftHand
                  {
                    OFFSET 24.5451 1.52588e-005 0
                    CHANNELS 3 Zrotation Xrotation Yrotation
                    End Site
                    {
                      OFFSET 0 0 0
                    }
                  }
                }
              }
            }
            JOINT Neck
            {
              OFFSET 5.0226 -0.0266342 0
              CHANNELS 3 Zrotation Xrotation Yrotation
              JOINT Head
              {
                OFFSET 6.69363 2.86102e-005 0
                CHANNELS 3 Zrotation Xrotation Yrotation
                End Site
                {
                  OFFSET 0 0 0
                }
              }
            }
          }
        }
      }
    }
  }
}
MOTION
Frames:	18
Frame Time:	0.0333333
-36.6007 89.8918 -93.752 43.9772 -35.7533 48.7171 -171.107 49.9822 95.5835 -38.7698 -10.8281 -7.19412 46.7326 -12.5486 -10.8007 28.7808 1.21446e-006 -5.13938e-006 172.492 27.55 68.4362 -4.20999 11.6917 0.68555 64.5581 7.26963 4.11355 28.7808 1.57929e-005 2.54473e-005 3.25733 8.43497 -91.563 10.1795 6.28292 -4.7139 -1.48578 6.06963 -4.98594 -24.1178 7.40743 -2.60204 -4.10519 7.40744 -2.60205 57.6223 -66.0491 -137.634 24.0374 22.479 -31.3686 -17.026 0.871846 -97.4317 42.01 -1.28413 -8.29576 -106.258 -52.1271 56.0196 -25.9668 -9.70046 26.4964 -56.3496 -2.86204 -90.5493 6.00096 2.37106 26.8461 33.4362 -6.45044 19.6394 -10.3668 -14.2323 -5.0179 
-32.6155 89.3106 -96.7531 51.8107 -35.0499 56.4359 -171.866 44.4883 91.5251 -38.3032 -11.8447 -5.35627 61.7374 -7.76916 -4.79844 28.7808 1.21446e-006 -5.13938e-006 174.139 25.0636 65.0024 -15.1215 16.168 0.940695 61.5776 11.2466 6.88965 28.7808 1.57929e-005 2.54473e-005 2.77216 8.6391 -92.0413 9.73985 4.90609 -5.30072 -1.93349 4.66819 -5.51116 -24.4974 6.27506 -3.58095 -4.48472 6.27506 -3.58097 62.0355 -67.6023 -131.662 18.3439 40.3023 -25.2427 -14.0018 -0.0758986 -93.9143 39.2742 -0.956686 -7.64791 -104.102 -48.3102 57.399 -18.6523 -18.1251 18.7301 -53.3928 4.27897 -95.9732 -7.13911 -1.36791 32.0679 33.0206 -6.7393 15.9431 -7.98127 -13.0908 -2.41634 
-27.2308 89.2693 -99.3897 54.0724 -34.2098 58.0758 -173.67 42.1376 87.0205 -39.0099 -13.6173 -3.59984 67.0174 -6.15179 -3.30119 28.7808 1.21446e-006 -5.13938e-006 177.473 28.1222 59.02 -26.2983 13.1788 0.608624 50.1024 11.166 8.54093 28.7808 1.57929e-005 2.54473e-005 2.64554 8.71217 -91.9965 9.58942 4.67409 -5.31652 -2.08497 4.43593 -5.51508 -24.6395 6.05806 -3.66831 -4.62685 6.05804 -3.66832 75.4964 -67.2072 -115.546 6.75059 55.4651 -13.394 -9.32236 -0.358515 -91.0859 31.8272 -0.675292 -7.32427 -101.512 -43.4192 59.0986 -19.4682 -16.5787 3.54151 -31.779 -7.38863 -83.1336 -20.0911 5.08436 -35.9568 36.1671 -8.01545 9.98593 -7.96095 -12.2906 3.18253 
-22.5828 89.6439 -101.798 56.3275 -35.7538 59.3842 -173.764 37.5469 84.4762 -37.8367 -12.2351 -3.50637 69.71 -5.00578 -2.45779 28.7808 1.21446e-006 -5.13938e-006 -175.667 32.8442 53.8439 -41.1181 4.25453 -0.0850033 37.9022 0.531151 1.3073 28.7808 1.57929e-005 2.54473e-005 2.55782 8.98121 -91.8766 9.06996 4.5847 -5.47796 -2.60531 4.33832 -5.67466 -25.1525 6.02596 -3.85417 -5.13983 6.02598 -3.85419 92.9516 -61.8676 -94.3966 -10.0684 61.3477 5.39826 -7.35356 -0.715953 -87.0395 24.2879 -0.570819 -7.54637 -98.8716 -38.0519 60.893 -15.79 -22.0742 -10.9379 -29.9408 -13.5136 -71.6545 -25.4635 13.8003 -65.6026 39.1438 -8.64128 5.1628 -10.5479 -11.1872 8.15269 
-18.1062 90.6099 -103.661 57.1102 -38.9594 58.7704 -173.662 31.9479 82.3327 -34.4902 -13.9551 -5.2565 69.2426 -3.68185 -1.83783 28.7808 1.21446e-006 -5.13938e-006 -169.552 36.7393 51.3505 -53.7335 12.2051 0.197975 50.5286 7.40725 5.82254 28.7808 1.57929e-005 2.54473e-005 2.10925 9.13798 -91.7199 8.73851 3.78801 -5.40628 -2.93915 3.54693 -5.56424 -25.4621 5.23555 -4.01278 -5.44941 5.23554 -4.01281 100.094 -52.2894 -85.1263 -20.8449 60.5 19.0165 -5.35828 -0.596883 -83.1968 18.902 -0.608561 -8.40875 -96.7057 -33.6012 62.4672 -6.34272 -38.2447 6.77313 -26.5571 0.00921355 -95.7836 -21.7312 4.88107 -35.567 29.6368 -6.62127 5.97302 -5.90109 -8.88829 6.31477 
-14.5238 91.9305 -104.775 56.4636 -38.6233 57.183 -174.274 30.1513 79.5396 -31.0926 -13.0102 -4.7726 62.4692 -5.2111 -3.21986 28.7808 1.21446e-006 -5.13938e-006 -154.244 46.2524 42.6747 -78.0783 0.00896427 -1.03553 40.0058 -9.59946 -7.65744 28.7808 1.57929e-005 2.54473e-005 1.36971 9.02164 -91.2762 8.93368 2.60444 -5.0193 -2.74481 2.38129 -5.12877 -25.2474 3.99148 -4.0005 -5.23472 3.99146 -4.0005 101.523 -48.0165 -83.0298 -28.0959 60.6066 24.9415 -6.62101 -1.00005 -79.9178 5.97123 -0.23782 -8.76594 -94.1379 -30.7734 65.8738 3.142 -56.0806 16.4277 -34.1406 9.96195 -107.548 -28.8443 0.731235 -7.86298 21.2075 -5.1806 4.5751 0.528015 -6.27965 7.04815 
-10.973 94.0942 -105.351 55.9992 -36.6762 57.3941 -175.085 28.413 78.7322 -25.4655 -8.7836 -3.6924 50.9546 -7.50684 -6.04151 28.7808 1.21446e-006 -5.13938e-006 -145.829 54.7154 40.5781 -91.3873 6.0442 -1.00982 43.8583 -12.0515 -9.38496 28.7808 1.57929e-005 2.54473e-005 0.810354 8.87476 -91.3987 9.18083 1.54669 -4.93243 -2.49879 1.32839 -4.99517 -24.9831 2.95625 -4.24154 -4.97046 2.95625 -4.24155 101.524 -45.8963 -83.0705 -47.1646 60.7691 43.998 -7.89356 -1.41405 -78.3393 14.8648 -1.06899 -12.7283 -91.7791 -27.3978 68.8816 4.03814 -61.0605 10.9762 -30.0852 8.64146 -108.027 -23.7534 0.91309 -9.70527 17.6347 -4.06993 3.04687 3.34825 -4.40869 8.13841 
-7.36168 96.3029 -105.43 56.0734 -35.4903 57.8933 -175.47 27.8295 78.7415 -22.7191 -3.12013 -2.62234 34.5169 -10.5858 -11.4107 28.7808 1.21446e-006 -5.13938e-006 -141.585 64.2358 41.341 -97.942 2.35173 -1.39735 42.0443 -13.0624 -10.5129 28.7808 1.57929e-005 2.54473e-005 0.507227 8.87213 -91.517 9.15836 0.988846 -4.91477 -2.52169 0.771873 -4.9527 -24.9974 2.41867 -4.38767 -4.98477 2.41867 -4.38769 102.64 -44.0346 -81.203 -51.0043 57.1247 50.7819 -7.63113 -1.56287 -75.7114 15.4131 -1.88218 -18.8037 -90.3495 -24.3118 70.4519 4.12499 -64.2398 6.18953 -26.9899 7.08471 -107.363 -23.4331 1.66133 -13.7186 17.4845 -3.48129 1.77165 3.55653 -3.40252 9.01664 
-3.76219 97.7639 -105.208 55.8618 -35.3045 59.0217 -176.546 26.5283 80.181 -20.9698 -1.99912 -0.994838 32.2175 -8.35243 -9.71738 28.7808 1.21446e-006 -5.13938e-006 -147.66 73.8554 52.0105 -98.5273 -5.5066 -1.82439 42.7043 -10.2659 -7.99886 28.7808 1.57929e-005 2.54473e-005 0.616318 8.89722 -91.9962 9.08743 0.722466 -4.79482 -2.59228 0.51098 -4.82188 -25.0679 2.12879 -4.35809 -5.05527 2.12876 -4.3581 102.861 -45.1367 -80.8583 -44.4075 49.9519 44.2149 -17.7606 -7.78721 -65.4039 -2.82073 0.440789 -28.4204 -90.0847 -21.9664 70.068 1.60402 -66.722 -1.52807 -23.736 5.72222 -106.854 -25.8941 2.55195 -17.1189 17.8976 -3.6566 -2.24496 2.73722 -2.37007 11.7349 
-0.204086 99.0424 -104.827 55.9968 -34.4439 60.5568 -176.005 28.0116 82.3435 -25.3487 -16.316 -1.70323 36.6247 -3.73133 -4.92778 28.7808 1.21446e-006 -5.13938e-006 -176.033 77.9171 84.5484 -90.046 -12.1903 -2.00375 42.391 -10.3438 -8.0913 28.7808 1.57929e-005 2.54473e-005 0.11541 8.99956 -91.6513 8.87163 0.120011 -4.47159 -2.80701 -0.0767266 -4.47256 -25.2854 1.45714 -4.22909 -5.27271 1.45714 -4.22911 100.742 -51.6636 -84.1574 -48.559 51.879 52.8763 -11.4707 -3.25615 -72.3727 19.6991 -3.19325 -22.3567 -88.1607 -19.6089 73.1772 -7.12422 -67.4935 -15.201 -27.4044 7.2966 -107.475 -29.8853 2.48762 -14.8778 24.0779 -4.62768 -11.384 -2.9044 -0.597832 18.8069 
3.20339 99.4398 -104.653 58.7634 -32.3912 62.2367 -175.138 28.764 84.3994 161.561 -9.06823 -174.529 -57.0067 1.9977 -15.8727 28.7808 1.21446e-006 -5.13938e-006 169.306 74.7326 102.015 -76.5244 -17.0106 -1.94845 42.3764 -6.66592 -4.97063 28.7808 1.57929e-005 2.54473e-005 -0.568843 9.17058 -91.0912 8.50947 -0.65801 -4.40297 -3.16868 -0.850969 -4.36986 -25.6448 0.69433 -4.39268 -5.6321 0.694327 -4.39269 99.1983 -57.2201 -86.2028 -46.4369 50.9158 52.9813 -7.16166 -1.63293 -72.5557 18.3038 -2.42568 -19.4363 -87.6892 -19.2983 74.1215 -14.9565 -62.7116 -27.851 -27.8757 7.0637 -106.797 -28.014 2.74424 -16.7049 29.7409 -5.06983 -11.851 -6.49569 -0.864244 19.2254 
7.01041 97.8113 -104.435 61.6601 -29.0092 63.7745 -176.601 22.4179 83.0216 -12.7236 -18.7849 -2.54246 41.2949 -7.74973 -7.17244 28.7808 1.21446e-006 -5.13938e-006 169.639 71.0974 103.535 -61.7962 -15.8696 -1.52522 41.8419 -4.04565 -2.74203 28.7808 1.57929e-005 2.54473e-005 -0.267077 9.24513 -92.1214 8.33919 -1.33272 -4.16761 -3.33746 -1.51471 -4.10508 -25.8196 -0.0198958 -4.38094 -5.80701 -0.0198966 -4.38097 96.2541 -63.6862 -89.7814 -42.259 48.475 52.0541 -0.335298 0.939679 -71.1912 9.05179 -1.14792 -18.3085 -88.2935 -18.245 72.3432 -18.7753 -56.0826 -33.3328 -29.5403 8.25561 -107.751 -24.4928 2.20671 -16.0885 37.415 -6.29767 -10.5614 -11.0651 -2.49289 18.2686 
11.1669 95.0486 -103.928 65.4203 -24.4258 64.4848 -176.68 18.3627 82.558 -11.1624 -32.8631 -7.49494 42.1866 -2.94243 -3.26151 28.7808 1.21446e-006 -5.13938e-006 175.143 67.216 97.361 -48.3203 -1.72735 -0.494629 42.1045 -3.04236 -1.89302 28.7808 1.57929e-005 2.54473e-005 -0.241783 9.18793 -92.539 8.45531 -1.9501 -3.70023 -3.21918 -2.11101 -3.611 -25.7146 -0.74847 -4.11439 -5.70202 -0.74847 -4.11442 89.6295 -70.3179 -97.3488 -37.9083 45.7853 52.7552 5.73092 3.34996 -71.164 6.15628 -0.78087 -17.7678 -90.872 -19.9773 67.4944 -19.9145 -47.9871 -37.8562 -31.3276 7.85911 -106.154 -25.4094 2.1607 -15.3332 44.3687 -8.85537 -12.2334 -17.0028 -4.45675 19.7251 
15.765 90.6016 -103.067 70.0014 -21.0386 66.5824 -176.647 11.9562 81.4264 -8.2209 6.59199 1.2593 54.8978 -1.7583 -1.38829 28.7808 1.21446e-006 -5.13938e-006 177.472 63.9135 94.0538 -43.4383 13.8092 0.559887 39.6291 -2.51123 -1.48278 28.7808 1.57929e-005 2.54473e-005 -0.202194 9.08107 -93.0609 8.68365 -2.25438 -3.28324 -2.98915 -2.39618 -3.18054 -25.4977 -1.17221 -3.81111 -5.48499 -1.17221 -3.81115 82.8966 -74.5609 -104.519 -28.0805 43.0309 49.402 13.8354 6.17972 -72.6823 2.80401 -0.397551 -17.3915 -94.6875 -23.7123 61.3208 -20.1848 -38.1644 -37.5766 -31.287 8.22342 -106.712 -28.8386 -0.0882882 -4.75014 46.7593 -11.6289 -13.9389 -20.9533 -6.85682 21.075 
21.8086 87.51 -101.849 75.9291 -21.5563 65.7402 -177.083 4.31881 77.1918 -13.5649 4.73457 0.802926 66.5207 4.8033 2.65161 28.7808 1.21446e-006 -5.13938e-006 179.345 56.9566 90.2874 -45.4309 17.16 0.694649 36.6309 -1.74772 -0.785496 28.7808 1.57929e-005 2.54473e-005 -0.911715 9.11591 -91.5326 8.6093 -2.25556 -2.80528 -3.06241 -2.37605 -2.70453 -25.5792 -1.30141 -3.34497 -5.56656 -1.30143 -3.34501 87.5773 -74.4808 -99.0778 -13.1641 39.926 39.8928 22.7478 8.43584 -75.4421 4.52641 -0.402611 -13.2583 -100.014 -30.7594 55.2651 -18.2373 -34.7964 -29.8741 -34.4574 7.27058 -103.868 -48.2363 -5.19333 7.82312 42.6554 -10.2189 -7.8358 -19.1033 -8.25583 17.5183 
28.6042 85.7795 -99.1348 77.1332 -28.2041 63.5442 -178.349 -2.77101 74.4335 -15.4284 -1.19617 -1.25983 67.7484 3.17053 1.69405 28.7808 1.21446e-006 -5.13938e-006 178.396 48.7762 93.1813 -48.2668 9.47108 0.14421 49.8622 -14.552 -10.5021 28.7808 1.57929e-005 2.54473e-005 -0.60653 9.06582 -90.9432 8.68576 -1.33895 -2.35854 -2.98658 -1.44271 -2.29601 -25.5056 -0.55892 -2.66094 -5.49293 -0.558931 -2.66097 92.0153 -71.6609 -94.2271 0.924566 35.7564 26.4739 24.2448 7.98443 -77.2163 8.62486 0.0123118 -5.03931 -105.56 -41.7618 52.1393 -17.4835 -24.595 -16.0289 -17.5023 1.04173 -98.2737 -51.309 -1.42326 -1.77962 38.9415 -6.31934 0.956582 -19.4092 -8.55398 13.1864 
31.6003 86.7902 -97.321 67.3217 -26.8991 62.9809 -171.817 15.4165 81.5957 -36.0751 4.35421 -3.87802 54.0525 -7.19029 -5.43823 28.7808 1.21446e-006 -5.13938e-006 176.583 50.7378 99.5246 -40.5933 10.5359 0.29508 50.5315 -16.8512 -12.1345 28.7808 1.57929e-005 2.54473e-005 -0.647337 7.95468 -90.9088 10.9284 -0.969239 -4.054 -0.748587 -1.14971 -4.00545 -23.2322 0.301095 -4.17201 -3.21948 0.301104 -4.17205 91.6234 -69.3377 -95.0687 9.58305 34.0331 12.625 12.7336 2.75418 -82.1075 31.5375 1.93625 1.81582 -107.898 -49.6584 52.6659 -18.8823 -17.7458 -6.74374 5.58973 -0.282014 -79.5339 -23.1029 2.80185 -18.7533 37.863 -0.795933 12.8617 -19.4167 -8.05555 6.91207 
35.2125 87.3837 -95.0964 68.7676 -39.0059 60.7785 -166.294 15.4759 85.5466 -54.9018 -15.7111 -16.9769 56.2035 -16.9844 -11.6661 28.7808 1.21446e-006 -5.13938e-006 177.596 41.2792 99.4225 -42.4156 0.116056 -0.301108 54.0414 -16.888 -11.4407 28.7808 1.57929e-005 2.54473e-005 -0.0454867 8.62682 -90.033 9.64684 0.415982 -3.28753 -2.02822 0.270967 -3.30265 -24.5349 1.38436 -3.01098 -4.52222 1.38435 -3.01101 86.7383 -66.3799 -101.707 18.6155 28.9583 -2.16706 4.92264 -0.308535 -92.6261 37.2942 4.57025 8.23085 -105.402 -50.331 56.4456 -19.1022 -16.8597 -3.15849 -10.7461 -6.91096 -67.6249 7.77431 0.254021 0.769783 33.7107 1.52741 17.3466 -17.5191 -6.87068 4.51001 
